# Blender v2.76 (sub 0) OBJ File: 'SpaceShip.blend'
# www.blender.org
mtllib SpaceShip.mtl
o Cube
v 0.650832 0.271315 -1.000000
v 1.240349 -0.000333 1.000000
v 0.650832 0.315481 -1.000000
v 1.240348 0.180615 0.560630
v 0.805783 -0.000334 4.284117
v 0.805782 0.180615 4.284118
v 3.119281 -0.942804 2.322021
v 3.119280 -0.761855 1.882651
v 0.650832 0.315481 -1.000000
v 1.240348 0.180615 0.560630
v 3.119280 -0.761855 1.882651
v 0.507604 0.512063 -1.000000
v 0.556329 0.986010 1.000001
v 0.218978 0.452316 3.753458
v 1.240349 -0.000333 -0.372761
v 1.240349 0.180615 -0.372760
v 3.119281 -0.942804 0.949260
v 3.119281 -0.761855 0.949260
v 1.240349 0.180615 -0.372760
v 3.119281 -0.761855 0.949260
v 0.653542 0.986010 -0.372760
v 3.457423 -0.942803 2.322021
v 3.457423 -0.761854 1.882651
v 3.457423 -0.942803 0.949260
v 3.457423 -0.761854 0.949261
v 3.119281 -0.942804 2.322021
v 3.119280 -0.761855 2.321895
v 3.457423 -0.942803 2.322021
v 3.457423 -0.761854 2.321895
v 3.182715 -0.908858 2.321997
v 3.182715 -0.795800 2.321919
v 3.393988 -0.908857 2.321997
v 3.393988 -0.795800 2.321919
v 3.182715 -0.907922 3.673004
v 3.182715 -0.794865 3.672926
v 3.393988 -0.907922 3.673004
v 3.393988 -0.794865 3.672926
v 3.242466 -0.875948 3.672982
v 3.242466 -0.826839 3.672948
v 3.334237 -0.875948 3.672982
v 3.334237 -0.826839 3.672948
v 3.242466 -0.875760 3.945883
v 3.242466 -0.826651 3.945849
v 3.334237 -0.875760 3.945883
v 3.334237 -0.826651 3.945849
v 0.960107 0.565249 0.770461
v 0.525541 0.310371 4.030690
v 0.582431 0.409363 -1.000000
v 0.960107 0.565249 -0.372760
v 0.845504 0.498033 1.630241
v 0.538940 0.845265 1.726136
v 1.125746 0.180615 1.542580
v 1.125746 -0.000333 1.866080
v -0.650832 0.271315 -1.000000
v -1.240349 -0.000333 1.000000
v 0.000000 -0.000333 1.000000
v 0.000000 0.271315 -1.000000
v -0.650832 0.315481 -1.000000
v -1.240348 0.180615 0.560630
v 0.000000 0.315481 -1.000000
v -0.805783 -0.000334 4.284117
v 0.000000 -0.000334 5.383713
v -0.805782 0.180615 4.284118
v 0.000000 0.180615 5.383713
v -3.119281 -0.942804 2.322021
v -3.119280 -0.761855 1.882651
v -0.650832 0.315481 -1.000000
v -1.240348 0.180615 0.560630
v -3.119280 -0.761855 1.882651
v -0.507604 0.512063 -1.000000
v -0.556329 0.986010 1.000001
v 0.000000 0.986010 1.000000
v 0.000000 0.512063 -1.000000
v -0.218978 0.452316 3.753458
v 0.000000 0.452316 4.853053
v -1.240349 -0.000333 -0.372761
v 0.000000 -0.000333 -0.372761
v -1.240349 0.180615 -0.372760
v -3.119281 -0.942804 0.949260
v -3.119281 -0.761855 0.949260
v -1.240349 0.180615 -0.372760
v -3.119281 -0.761855 0.949260
v -0.653542 0.986010 -0.372760
v 0.000000 0.986010 -0.372761
v -3.457423 -0.942803 2.322021
v -3.457423 -0.761854 1.882651
v -3.457423 -0.942803 0.949260
v -3.457423 -0.761854 0.949261
v -3.119281 -0.942804 2.322021
v -3.119280 -0.761855 2.321895
v -3.457423 -0.942803 2.322021
v -3.457423 -0.761854 2.321895
v -3.182715 -0.908858 2.321997
v -3.182715 -0.795800 2.321919
v -3.393988 -0.908857 2.321997
v -3.393988 -0.795800 2.321919
v -3.182715 -0.907922 3.673004
v -3.182715 -0.794865 3.672926
v -3.393988 -0.907922 3.673004
v -3.393988 -0.794865 3.672926
v -3.242466 -0.875948 3.672982
v -3.242466 -0.826839 3.672948
v -3.334237 -0.875948 3.672982
v -3.334237 -0.826839 3.672948
v -3.242466 -0.875760 3.945883
v -3.242466 -0.826651 3.945849
v -3.334237 -0.875760 3.945883
v -3.334237 -0.826651 3.945849
v 0.000000 0.409363 -1.000000
v -0.960107 0.565249 0.770461
v -0.525541 0.310371 4.030690
v -0.582431 0.409363 -1.000000
v 0.000000 0.310371 5.130285
v -0.960107 0.565249 -0.372760
v -0.845504 0.498033 1.630241
v -0.538940 0.845265 1.726136
v 0.000000 0.948491 1.700656
v 0.000000 -0.000333 2.156063
v -1.125746 0.180615 1.542580
v -1.125746 -0.000333 1.866080
vn 0.000000 -1.000000 0.000000
vn 0.682900 0.497600 -0.534900
vn 0.575400 0.000000 -0.817800
vn 0.000000 0.000000 -1.000000
vn 0.806600 0.000000 0.591100
vn 0.986400 0.109400 0.122300
vn 0.192200 0.907400 0.373700
vn 0.448400 0.893900 0.000000
vn 0.728700 0.000000 -0.684900
vn 0.000000 0.000000 1.000000
vn 0.000000 1.000000 -0.000000
vn 0.756400 0.637500 0.146500
vn 0.000000 -0.917600 -0.397400
vn 0.767800 0.640000 0.029700
vn -0.448400 -0.893900 0.000000
vn 0.000000 0.797800 -0.602900
vn 1.000000 0.000000 0.000000
vn -0.000000 0.000700 1.000000
vn -1.000000 -0.000000 0.000000
vn -0.000000 1.000000 -0.000700
vn 0.000000 -1.000000 0.000700
vn 0.392700 0.888400 0.237700
vn 0.800100 0.587500 0.121000
vn 0.808200 0.588900 0.000000
vn 0.960600 0.251100 0.119100
vn 0.601400 0.792200 0.103800
vn 0.090200 0.988100 0.124600
vn -0.682900 0.497600 -0.534900
vn -0.575400 0.000000 -0.817800
vn -0.806600 0.000000 0.591100
vn -0.986400 0.109400 0.122300
vn -0.192200 0.907400 0.373700
vn -0.448400 0.893900 0.000000
vn -0.728700 0.000000 -0.684900
vn -0.756400 0.637500 0.146500
vn -0.767800 0.640000 0.029700
vn 0.448400 -0.893900 0.000000
vn -0.392700 0.888400 0.237700
vn -0.800100 0.587500 0.121000
vn -0.808200 0.588900 0.000000
vn -0.960600 0.251100 0.119100
vn -0.601400 0.792200 0.103800
vn -0.090200 0.988100 0.124600
vn 0.377800 0.908400 0.179300
vn 0.491100 0.855100 0.166300
vn 0.578100 0.794100 0.187700
vn -0.377800 0.908400 0.179300
vn -0.491100 0.855100 0.166300
vn -0.578100 0.794100 0.187700
usemtl Base
s off
f 15//1 2//1 56//1 77//1
f 49//2 48//2 12//2 21//2
f 17//3 15//3 19//3 20//3
f 48//4 109//4 73//4 12//4
f 5//5 6//5 64//5 62//5
f 3//4 1//4 57//4 60//4
f 118//1 53//1 5//1 62//1
f 53//6 52//6 6//6 5//6
f 17//4 18//4 25//4 24//4
f 4//7 2//7 7//7 8//7
f 19//8 10//8 11//8 20//8
f 1//9 3//9 16//9 15//9
f 16//10 4//10 10//10 19//10
f 4//10 8//10 11//10 10//10
f 21//11 84//11 72//11 13//11
f 50//12 46//12 13//12 51//12
f 1//13 15//13 77//13 57//13
f 46//14 49//14 21//14 13//14
f 2//15 15//15 17//15 7//15
f 8//10 18//10 20//10 11//10
f 3//10 16//10 19//10 9//10
f 12//16 73//16 84//16 21//16
f 24//17 25//17 23//17 22//17
f 7//1 17//1 24//1 22//1
f 23//11 8//11 27//11 29//11
f 18//11 8//11 23//11 25//11
f 29//18 27//18 31//18 33//18
f 8//19 7//19 26//19 27//19
f 22//17 23//17 29//17 28//17
f 7//10 22//10 28//10 26//10
f 33//20 31//20 35//20 37//20
f 27//18 26//18 30//18 31//18
f 28//18 29//18 33//18 32//18
f 26//18 28//18 32//18 30//18
f 37//18 35//18 39//18 41//18
f 30//21 32//21 36//21 34//21
f 31//19 30//19 34//19 35//19
f 32//17 33//17 37//17 36//17
f 41//20 39//20 43//20 45//20
f 35//18 34//18 38//18 39//18
f 36//18 37//18 41//18 40//18
f 34//18 36//18 40//18 38//18
f 43//18 42//18 44//18 45//18
f 40//17 41//17 45//17 44//17
f 38//21 40//21 44//21 42//21
f 39//19 38//19 42//19 43//19
f 16//2 3//2 48//2 49//2
f 3//4 60//4 109//4 48//4
f 64//22 6//22 47//22 113//22
f 52//23 4//23 46//23 50//23
f 4//24 16//24 49//24 46//24
f 2//25 4//25 52//25 53//25
f 6//26 52//26 50//26 47//26
f 56//1 2//1 53//1 118//1
f 13//27 72//27 117//27 51//27
f 76//1 77//1 56//1 55//1
f 114//28 83//28 70//28 112//28
f 79//29 82//29 81//29 76//29
f 112//4 70//4 73//4 109//4
f 61//30 62//30 64//30 63//30
f 58//4 60//4 57//4 54//4
f 118//1 62//1 61//1 120//1
f 120//31 61//31 63//31 119//31
f 79//4 87//4 88//4 80//4
f 59//32 66//32 65//32 55//32
f 81//33 82//33 69//33 68//33
f 54//34 76//34 78//34 58//34
f 78//10 81//10 68//10 59//10
f 59//10 68//10 69//10 66//10
f 83//11 71//11 72//11 84//11
f 115//35 116//35 71//35 110//35
f 54//13 57//13 77//13 76//13
f 110//36 71//36 83//36 114//36
f 55//37 65//37 79//37 76//37
f 66//10 69//10 82//10 80//10
f 58//10 67//10 81//10 78//10
f 70//16 83//16 84//16 73//16
f 87//19 85//19 86//19 88//19
f 65//1 85//1 87//1 79//1
f 86//11 92//11 90//11 66//11
f 80//11 88//11 86//11 66//11
f 92//18 96//18 94//18 90//18
f 66//17 90//17 89//17 65//17
f 85//19 91//19 92//19 86//19
f 65//10 89//10 91//10 85//10
f 96//20 100//20 98//20 94//20
f 90//18 94//18 93//18 89//18
f 91//18 95//18 96//18 92//18
f 89//18 93//18 95//18 91//18
f 100//18 104//18 102//18 98//18
f 93//21 97//21 99//21 95//21
f 94//17 98//17 97//17 93//17
f 95//19 99//19 100//19 96//19
f 104//20 108//20 106//20 102//20
f 98//18 102//18 101//18 97//18
f 99//18 103//18 104//18 100//18
f 97//18 101//18 103//18 99//18
f 106//18 108//18 107//18 105//18
f 103//19 107//19 108//19 104//19
f 101//21 105//21 107//21 103//21
f 102//17 106//17 105//17 101//17
f 78//28 114//28 112//28 58//28
f 58//4 112//4 109//4 60//4
f 64//38 113//38 111//38 63//38
f 119//39 115//39 110//39 59//39
f 59//40 110//40 114//40 78//40
f 55//41 120//41 119//41 59//41
f 63//42 111//42 115//42 119//42
f 56//1 118//1 120//1 55//1
f 71//43 116//43 117//43 72//43
usemtl Black
f 51//44 117//44 75//44 14//44
f 113//45 47//45 14//45 75//45
f 47//46 50//46 51//46 14//46
f 116//47 74//47 75//47 117//47
f 113//48 75//48 74//48 111//48
f 111//49 74//49 116//49 115//49
