# Blender v2.76 (sub 0) OBJ File: ''
# www.blender.org
mtllib untitled.mtl
o Cube
v 2.963403 -2.963403 -2.963403
v 2.963403 -2.963403 2.963403
v -2.963403 -2.963403 2.963403
v -2.963402 -2.963403 -2.963404
v 2.963404 2.963403 -2.963401
v 2.963401 2.963403 2.963405
v -2.963404 2.963403 2.963402
v -2.963403 2.963403 -2.963403
v 2.963403 -2.963403 0.000000
v 0.000001 -2.963403 -2.963403
v 2.963404 0.000000 -2.963402
v 0.000000 -2.963403 2.963403
v 2.963402 0.000000 2.963404
v -2.963403 -2.963403 -0.000001
v -2.963404 0.000000 2.963402
v -2.963402 0.000000 -2.963404
v 2.963403 2.963403 0.000002
v 0.000001 2.963403 -2.963402
v -0.000002 2.963403 2.963403
v -2.963403 2.963403 -0.000001
v 0.000001 0.000000 -2.963403
v -2.963403 0.000000 -0.000001
v -0.000001 0.000000 2.963403
v 2.963403 0.000000 0.000001
v -0.000000 2.963403 0.000000
v 0.000000 -2.963403 -0.000000
vn 0.000000 -1.000000 -0.000000
vn 0.000000 1.000000 -0.000000
vn 1.000000 0.000000 0.000000
vn -0.000000 -0.000000 1.000000
vn -1.000000 -0.000000 -0.000000
vn 0.000000 0.000000 -1.000000
usemtl Material
s off
f 26//1 12//1 3//1 14//1
f 25//2 20//2 7//2 19//2
f 24//3 17//3 6//3 13//3
f 23//4 19//4 7//4 15//4
f 22//5 20//5 8//5 16//5
f 21//6 10//6 4//6 16//6
f 18//6 21//6 16//6 8//6
f 5//6 11//6 21//6 18//6
f 11//6 1//6 10//6 21//6
f 14//5 22//5 16//5 4//5
f 3//5 15//5 22//5 14//5
f 15//5 7//5 20//5 22//5
f 12//4 23//4 15//4 3//4
f 2//4 13//4 23//4 12//4
f 13//4 6//4 19//4 23//4
f 9//3 24//3 13//3 2//3
f 1//3 11//3 24//3 9//3
f 11//3 5//3 17//3 24//3
f 17//2 25//2 19//2 6//2
f 5//2 18//2 25//2 17//2
f 18//2 8//2 20//2 25//2
f 10//1 26//1 14//1 4//1
f 1//1 9//1 26//1 10//1
f 9//1 2//1 12//1 26//1
